<?xml version="1.0" encoding="UTF-8"?>
<svg width="1048.6" height="210.72" version="1.1" viewBox="0 0 277.43 55.754" xmlns="http://www.w3.org/2000/svg">
 <g>
  <path d="m53.467 2.6459c19.632 0 22.23 15.281 53.564 15.281 18.262 0 148.15 0.09273 159.34 0.09273 11.195 0 11.255 35.089-9e-3 35.089-10.336 0-216.62-0.0094-232.92-0.0048-17.245 0.004804-30.386 0.2981-30.71-9.0978-0.32432-9.3959-2.3254-41.36 50.733-41.36" fill="#fff"/>
  <path d="m20.887 37.864h7.8362l-3.6519 9.0091h-7.8361z" fill="#18293c"/>
  <path d="m27.876 37.864c-0.12026 0.19197-0.23954 0.39243-0.35652 0.61333-3.1048 5.8195-7.0929 7.402-10.035 7.7827l-0.24885 0.61408h7.8361l3.652-9.009z" fill="#0a121a"/>
 </g>
 <path d="m20.887 37.864h7.8362l-3.6519 9.0091h-7.8361z" fill="none" stroke="#3a5778" stroke-width="1.0782"/>
 <path d="m20.887 37.864h7.8362l-3.6519 9.0091h-7.8361z" fill="none" stroke-width="0"/>
 <g transform="matrix(.1994 .39723 -.39723 .1994 464.98 -198.88)" shape-rendering="auto">
  <g fill="#18293c">
   <path d="m16.092 1021.4c-1.1057 0.01 0.20346-0.04-3.3161 0.09-3.5195 0.1303-12.626 3.6162-10.776 10.908 1.8502 7.2918 3.0023 12.296 2.8826 20.608-0.11961 8.3123 22.691 8.7287 22.113 1.9672s3.0046-22.575 3.0046-22.575c0.7874-5.9161-4.6673-10.491-10.59-10.908-1.1058-0.078-2.2123-0.099-3.3181-0.09z" color="#000000" color-rendering="auto" image-rendering="auto" solid-color="#000000" style="isolation:auto;mix-blend-mode:normal"/>
   <ellipse transform="matrix(-.49169 -.87077 -.87077 .49169 0 0)" cx="-907.36" cy="479.9" rx="3.5794" ry="3.8208" color="#000000" color-rendering="auto" image-rendering="auto" solid-color="#000000" style="isolation:auto;mix-blend-mode:normal"/>
   <ellipse transform="rotate(-60.548)" cx="-891.58" cy="507.85" rx="3.5794" ry="3.8208" color="#000000" color-rendering="auto" image-rendering="auto" solid-color="#000000" style="isolation:auto;mix-blend-mode:normal"/>
  </g>
  <path d="m4.6299 1024.5c0.45956 0.2595 1.8183 1.2013 1.981 1.648 0.1834 0.5035 0.15938 1.0657-0.11461 1.551-0.34663 0.6138-1.0053 0.9487-1.6964 0.9365-0.33989-0.01-1.7203-0.6372-2.0426-0.8192-0.97754-0.5519-1.3508-1.7418-0.83369-2.6576s1.7287-1.2107 2.7063-0.6587z" color="#000000" color-rendering="auto" fill="#76e1fe" image-rendering="auto" solid-color="#000000" style="isolation:auto;mix-blend-mode:normal"/>
  <rect x="14.406" y="1035.7" width="3.0867" height="3.5314" ry=".62426" color="#000000" color-rendering="auto" fill-opacity=".3285" image-rendering="auto" solid-color="#000000" style="isolation:auto;mix-blend-mode:normal"/>
  <g>
   <path d="m16 1023.4c-9 0-13.369 4.5618-12 9s3.1988 11.361 2.5396 19.528 19.578 2.0615 19.578 2.0615c-1.6737-7.8193 1.8822-19.589 1.8822-21.589 0-5.2848-3-9-12-9z" color="#000000" color-rendering="auto" fill="#76e1fe" image-rendering="auto" solid-color="#000000" style="isolation:auto;mix-blend-mode:normal"/>
   <path d="m27.082 1024.8c-0.45957 0.2595-1.8791 1.1202-1.6379 1.5298 0.24406 0.4145 0.87559 0.4633 1.1496 0.9486 0.34663 0.6138 0.2959 0.8632 0.31834 1.6571 0.33988-0.01 1.7203-0.6372 2.0426-0.8192 0.97754-0.5519 1.3508-1.7418 0.83369-2.6576-0.51711-0.9158-1.7288-1.2107-2.7063-0.6587z" color="#000000" color-rendering="auto" fill="#3abbdf" image-rendering="auto" solid-color="#000000" style="isolation:auto;mix-blend-mode:normal"/>
   <circle cx="21.176" cy="1030.4" r="4.6538" color="#000000" color-rendering="auto" fill="#fff" image-rendering="auto" solid-color="#000000" style="isolation:auto;mix-blend-mode:normal"/>
   <circle cx="10.339" cy="1030.4" r="4.8316" color="#000000" color-rendering="auto" fill="#fff" image-rendering="auto" solid-color="#000000" style="isolation:auto;mix-blend-mode:normal"/>
  </g>
  <rect x="14.627" y="1036.1" width="3.6674" height="4.1063" ry=".72591" color="#000000" color-rendering="auto" fill-opacity=".32941" image-rendering="auto" solid-color="#000000" style="isolation:auto;mix-blend-mode:normal"/>
  <path d="m20.654 1036.2c0 0.838-0.87123 1.2682-2.1448 1.1659-1.484-0.085-2.6853-0.01-3.8871 0-1.2437-0.033-2.0788-0.3383-2.0788-1.1618 0-1.2118 1.8156-2.1941 4.0554-2.1941 2.2397 0 4.0554 0.9823 4.0554 2.1941z" color="#000000" color-rendering="auto" fill-opacity=".32941" image-rendering="auto" solid-color="#000000" style="isolation:auto;mix-blend-mode:normal"/>
  <g>
   <rect x="14.116" y="1035.2" width="3.6674" height="4.1063" ry=".72591" color="#000000" color-rendering="auto" fill="#fffcfb" image-rendering="auto" solid-color="#000000" style="isolation:auto;mix-blend-mode:normal"/>
   <path d="m19.977 1035.7c0 0.5685-0.43366 0.8554-1.1381 1.0001-0.29193 0.06-0.63037 0.096-1.0037 0.1166-0.56405 0.032-1.2078 0.031-1.8912 0.031-0.67283 0-1.3072 0-1.8649-0.029-0.30627-0.017-0.58943-0.043-0.84316-0.084-0.81383-0.1318-1.325-0.417-1.325-1.0344 0-1.1601 1.8056-2.1006 4.033-2.1006 2.2274 0 4.033 0.9405 4.033 2.1006z" color="#000000" color-rendering="auto" fill="#c38c74" image-rendering="auto" solid-color="#000000" style="isolation:auto;mix-blend-mode:normal"/>
   <ellipse cx="15.944" cy="1033.9" rx="2.0802" ry="1.3437" color="#000000" color-rendering="auto" fill="#23201f" image-rendering="auto" solid-color="#000000" style="isolation:auto;mix-blend-mode:normal"/>
   <circle cx="12.414" cy="1030.4" r="1.9631" color="#000000" color-rendering="auto" fill="#171311" image-rendering="auto" solid-color="#000000" style="isolation:auto;mix-blend-mode:normal"/>
   <circle cx="23.11" cy="1030.4" r="1.9631" color="#000000" color-rendering="auto" fill="#171311" image-rendering="auto" solid-color="#000000" style="isolation:auto;mix-blend-mode:normal"/>
  </g>
 </g>
 <g transform="matrix(.1994 .39723 -.39723 .1994 464.98 -198.88)" shape-rendering="auto">
  <rect x="14.406" y="1035.7" width="3.0867" height="3.5314" ry=".62426" color="#000000" color-rendering="auto" fill-opacity=".3285" image-rendering="auto" solid-color="#000000" style="isolation:auto;mix-blend-mode:normal"/>
  <g>
   <path d="m21.057 1023.9c10.313 6.0905 3.0003 9.8927 4.1761 28.318l0.6304 0.075c-0.6904-7.5565 2.1521-18.047 2.1521-19.908 3e-6 -4.1341-1.851-7.2987-6.9587-8.4848z" color="#000000" color-rendering="auto" fill="#3abbdf" image-rendering="auto" solid-color="#000000" style="isolation:auto;mix-blend-mode:normal"/>
   <circle cx="21.176" cy="1030.4" r="4.6538" color="#000000" color-rendering="auto" fill="#fff" image-rendering="auto" solid-color="#000000" style="isolation:auto;mix-blend-mode:normal"/>
   <circle cx="10.339" cy="1030.4" r="4.8316" color="#000000" color-rendering="auto" fill="#fff" image-rendering="auto" solid-color="#000000" style="isolation:auto;mix-blend-mode:normal"/>
  </g>
  <rect x="14.627" y="1036.1" width="3.6674" height="4.1063" ry=".72591" color="#000000" color-rendering="auto" fill-opacity=".32941" image-rendering="auto" solid-color="#000000" style="isolation:auto;mix-blend-mode:normal"/>
  <path d="m20.654 1036.2c0 0.838-0.87123 1.2682-2.1448 1.1659-1.484-0.085-2.6853-0.01-3.8871 0-1.2437-0.033-2.0788-0.3383-2.0788-1.1618 0-1.2118 1.8156-2.1941 4.0554-2.1941 2.2397 0 4.0554 0.9823 4.0554 2.1941z" color="#000000" color-rendering="auto" fill-opacity=".32941" image-rendering="auto" solid-color="#000000" style="isolation:auto;mix-blend-mode:normal"/>
  <g>
   <rect x="14.116" y="1035.2" width="3.6674" height="4.1063" ry=".72591" color="#000000" color-rendering="auto" fill="#fffcfb" image-rendering="auto" solid-color="#000000" style="isolation:auto;mix-blend-mode:normal"/>
   <path d="m19.977 1035.7c0 0.5685-0.43366 0.8554-1.1381 1.0001-0.29193 0.06-0.63037 0.096-1.0037 0.1166-0.56405 0.032-1.2078 0.031-1.8912 0.031-0.67283 0-1.3072 0-1.8649-0.029-0.30627-0.017-0.58943-0.043-0.84316-0.084-0.81383-0.1318-1.325-0.417-1.325-1.0344 0-1.1601 1.8056-2.1006 4.033-2.1006 2.2274 0 4.033 0.9405 4.033 2.1006z" color="#000000" color-rendering="auto" fill="#c38c74" image-rendering="auto" solid-color="#000000" style="isolation:auto;mix-blend-mode:normal"/>
   <ellipse cx="15.944" cy="1033.9" rx="2.0802" ry="1.3437" color="#000000" color-rendering="auto" fill="#23201f" image-rendering="auto" solid-color="#000000" style="isolation:auto;mix-blend-mode:normal"/>
   <circle cx="12.414" cy="1030.4" r="1.9631" color="#000000" color-rendering="auto" fill="#171311" image-rendering="auto" solid-color="#000000" style="isolation:auto;mix-blend-mode:normal"/>
   <circle cx="23.11" cy="1030.4" r="1.9631" color="#000000" color-rendering="auto" fill="#171311" image-rendering="auto" solid-color="#000000" style="isolation:auto;mix-blend-mode:normal"/>
  </g>
 </g>
 <g>
  <path d="m8.9159 31.684s13.118-12.319 22.878-17.185c9.7596-4.8664 18.224-3.4796 18.224-3.4796l4.7021 9.9462s-1.5276 6.9395-13.774 12.893c-12.246 5.9535-27.369 7.6854-27.369 7.6854z" fill="#18293c"/>
  <path d="m54.194 19.854c-2.7312 9.1618-27.267 16.853-41.029 20.411l0.41158 1.2779s15.123-1.7304 27.369-7.6854c12.246-5.9536 13.774-12.893 13.774-12.893z" fill="#0a121a"/>
  <rect x="15.636" y="46.943" width="26.245" height="2.0041" fill="#181818" stroke="#3a5778" stroke-width=".68084"/>
 </g>
 <g transform="rotate(-25.805 11.877 -7.5209)" fill="#fff" stroke-width=".22105" aria-label="HTTP">
  <path d="m10.761 27.779v6.1895h-1.4324v-2.5377h-2.8118v2.5377h-1.4324v-6.1895h1.4324v2.4404h2.8118v-2.4404z"/>
  <path d="m13.511 28.946h-1.9806v-1.1672h5.3937v1.1672h-1.9806v5.0223h-1.4324z"/>
  <path d="m19.064 28.946h-1.9806v-1.1672h5.3937v1.1672h-1.9806v5.0223h-1.4324z"/>
  <path d="m25.926 27.779q0.82232 0 1.4236 0.2741 0.6101 0.2741 0.93726 0.7781 0.32716 0.504 0.32716 1.1937 0 0.68084-0.32716 1.1937-0.32716 0.504-0.93726 0.7781-0.60126 0.26526-1.4236 0.26526h-1.2467v1.7065h-1.4324v-6.1895zm-0.07958 3.3158q0.64547 0 0.98147-0.2741 0.336-0.28295 0.336-0.79579 0-0.52168-0.336-0.79579-0.336-0.28295-0.98147-0.28295h-1.1672v2.1486z"/>
 </g>
 <path d="m8.9159 31.684s13.118-12.319 22.878-17.185c9.7596-4.8664 18.224-3.4796 18.224-3.4796l4.7021 9.9462s-1.5276 6.9395-13.774 12.893c-12.246 5.9535-27.369 7.6854-27.369 7.6854z" fill="none" stroke="#3a5778" stroke-width=".97574" style="paint-order:markers fill stroke"/>
 <g transform="rotate(.084871 -2981.9 3012)" fill="#18293c" stroke-width=".90055" aria-label="GOCANNON">
  <path d="m48.929 31.787q0-3.7103 1.657-6.6281 1.693-2.9538 4.6108-4.5748 2.9538-1.657 6.556-1.657 4.2506 0 7.3846 2.0893 3.1339 2.0533 4.3227 5.7996h-5.7996q-0.86453-1.585-2.3775-2.4135-1.5129-0.82851-3.5302-0.82851-2.2334 0-3.9624 1.0086-1.7291 1.0086-2.7017 2.8818-0.9726 1.8732-0.9726 4.3227 0 2.5216 0.9726 4.3947 1.0086 1.8732 2.7737 2.8818 1.7651 1.0086 4.1065 1.0086 2.8818 0 4.7189-1.549 1.8732-1.549 2.4135-4.2866h-8.6453v-3.8184h13.616v4.3947q-0.50431 2.6296-2.1613 4.863-1.657 2.2334-4.2866 3.6022-2.5936 1.3328-5.8356 1.3328-3.6382 0-6.5921-1.621-2.9178-1.657-4.6108-4.5748-1.657-2.9178-1.657-6.6281z"/>
  <path d="m89.49 44.647q-3.5302 0-6.484-1.657-2.9538-1.657-4.6829-4.5748-1.7291-2.9538-1.7291-6.6641 0-3.6743 1.7291-6.5921 1.7291-2.9538 4.6829-4.6108 2.9538-1.657 6.484-1.657 3.5662 0 6.484 1.657 2.9538 1.657 4.6469 4.6108 1.7291 2.9178 1.7291 6.5921 0 3.7103-1.7291 6.6641-1.693 2.9178-4.6469 4.5748-2.9538 1.657-6.484 1.657zm0-4.6469q2.2694 0 3.9985-1.0086 1.7291-1.0446 2.7017-2.8818 0.9726-1.8732 0.9726-4.3587t-0.9726-4.3227q-0.9726-1.8732-2.7017-2.8818-1.7291-1.0086-3.9985-1.0086-2.2694 0-4.0345 1.0086-1.7291 1.0086-2.7017 2.8818-0.9726 1.8371-0.9726 4.3227t0.9726 4.3587q0.9726 1.8371 2.7017 2.8818 1.7651 1.0086 4.0345 1.0086z"/>
  <path d="m104.87 31.787q0-3.7103 1.657-6.6281 1.693-2.9538 4.5748-4.5748 2.9178-1.657 6.52-1.657 4.2146 0 7.3846 2.1613 3.17 2.1613 4.4307 5.9797h-5.7996q-0.90055-1.7291-2.4495-2.5936-1.549-0.90056-3.6022-0.90056-2.1974 0-3.9264 1.0086-1.693 1.0086-2.6656 2.8818-0.93658 1.8732-0.93658 4.3227t0.93658 4.3227q0.9726 1.8371 2.6656 2.8818 1.7291 1.0086 3.9264 1.0086 2.0533 0 3.6022-0.90056 1.585-0.90056 2.4495-2.6296h5.7996q-1.2608 3.8544-4.4307 6.0157-3.1339 2.1253-7.3846 2.1253-3.6022 0-6.52-1.621-2.8818-1.657-4.5748-4.5748-1.657-2.9178-1.657-6.6281z"/>
  <path d="m149.18 39.604h-10.014l-1.657 4.791h-5.2953l9.0416-25.18h5.8716l9.0416 25.18h-5.3313zm-1.3328-3.9264-3.6743-10.627-3.6743 10.627z"/>
  <path d="m181.06 44.395h-5.0431l-11.419-17.255v17.255h-5.0431v-25.18h5.0431l11.419 17.291v-17.291h5.0431z"/>
  <path d="m207.53 44.395h-5.0431l-11.419-17.255v17.255h-5.0431v-25.18h5.0431l11.419 17.291v-17.291h5.0431z"/>
  <path d="m224.18 44.647q-3.5302 0-6.484-1.657-2.9538-1.657-4.6829-4.5748-1.7291-2.9538-1.7291-6.6641 0-3.6743 1.7291-6.5921 1.7291-2.9538 4.6829-4.6108t6.484-1.657q3.5662 0 6.484 1.657 2.9538 1.657 4.6469 4.6108 1.7291 2.9178 1.7291 6.5921 0 3.7103-1.7291 6.6641-1.693 2.9178-4.6469 4.5748-2.9538 1.657-6.484 1.657zm0-4.6469q2.2694 0 3.9985-1.0086 1.7291-1.0446 2.7017-2.8818 0.9726-1.8732 0.9726-4.3587t-0.9726-4.3227q-0.9726-1.8732-2.7017-2.8818-1.7291-1.0086-3.9985-1.0086t-4.0345 1.0086q-1.7291 1.0086-2.7017 2.8818-0.9726 1.8371-0.9726 4.3227t0.9726 4.3587q0.9726 1.8371 2.7017 2.8818 1.7651 1.0086 4.0345 1.0086z"/>
  <path d="m262.29 44.395h-5.0431l-11.419-17.255v17.255h-5.0431v-25.18h5.0431l11.419 17.291v-17.291h5.0431z"/>
 </g>
</svg>
