<?xml version="1.0" encoding="UTF-8"?>
<svg width="421.46" height="262.08" version="1.1" viewBox="0 0 111.51 69.341" xmlns="http://www.w3.org/2000/svg">
 <path d="m39.541 37.272h8.6152l-4.015 9.9047h-8.6151z" fill="#18293c"/>
 <path d="m47.225 37.272c-0.13224 0.21106-0.26331 0.43143-0.39198 0.6743-3.4134 6.3981-7.798 8.1378-11.033 8.5564l-0.27361 0.67513h8.6151l4.015-9.9046z" fill="#0a121a"/>
 <path d="m39.541 37.272h8.6152l-4.015 9.9047h-8.6151z" fill="none" stroke="#3a5778" stroke-width="1.1854"/>
 <path d="m39.541 37.272h8.6152l-4.015 9.9047h-8.6151z" fill="none" stroke-width="0"/>
 <g transform="matrix(.21923 .43672 -.43672 .21923 527.79 -223.01)" shape-rendering="auto">
  <g fill="#18293c">
   <path d="m16.092 1021.4c-1.1057 0.01 0.20346-0.04-3.3161 0.09-3.5195 0.1303-12.626 3.6162-10.776 10.908 1.8502 7.2918 3.0023 12.296 2.8826 20.608-0.11961 8.3123 22.691 8.7287 22.113 1.9672s3.0046-22.575 3.0046-22.575c0.7874-5.9161-4.6673-10.491-10.59-10.908-1.1058-0.078-2.2123-0.099-3.3181-0.09z" color="#000000" color-rendering="auto" image-rendering="auto" solid-color="#000000" style="isolation:auto;mix-blend-mode:normal"/>
   <ellipse transform="matrix(-.49169 -.87077 -.87077 .49169 0 0)" cx="-907.36" cy="479.9" rx="3.5794" ry="3.8208" color="#000000" color-rendering="auto" image-rendering="auto" solid-color="#000000" style="isolation:auto;mix-blend-mode:normal"/>
   <ellipse transform="rotate(-60.548)" cx="-891.58" cy="507.85" rx="3.5794" ry="3.8208" color="#000000" color-rendering="auto" image-rendering="auto" solid-color="#000000" style="isolation:auto;mix-blend-mode:normal"/>
  </g>
  <path d="m4.6299 1024.5c0.45956 0.2595 1.8183 1.2013 1.981 1.648 0.1834 0.5035 0.15938 1.0657-0.11461 1.551-0.34663 0.6138-1.0053 0.9487-1.6964 0.9365-0.33989-0.01-1.7203-0.6372-2.0426-0.8192-0.97754-0.5519-1.3508-1.7418-0.83369-2.6576s1.7287-1.2107 2.7063-0.6587z" color="#000000" color-rendering="auto" fill="#76e1fe" image-rendering="auto" solid-color="#000000" style="isolation:auto;mix-blend-mode:normal"/>
  <rect x="14.406" y="1035.7" width="3.0867" height="3.5314" ry=".62426" color="#000000" color-rendering="auto" fill-opacity=".3285" image-rendering="auto" solid-color="#000000" style="isolation:auto;mix-blend-mode:normal"/>
  <g>
   <path d="m16 1023.4c-9 0-13.369 4.5618-12 9s3.1988 11.361 2.5396 19.528 19.578 2.0615 19.578 2.0615c-1.6737-7.8193 1.8822-19.589 1.8822-21.589 0-5.2848-3-9-12-9z" color="#000000" color-rendering="auto" fill="#76e1fe" image-rendering="auto" solid-color="#000000" style="isolation:auto;mix-blend-mode:normal"/>
   <path d="m27.082 1024.8c-0.45957 0.2595-1.8791 1.1202-1.6379 1.5298 0.24406 0.4145 0.87559 0.4633 1.1496 0.9486 0.34663 0.6138 0.2959 0.8632 0.31834 1.6571 0.33988-0.01 1.7203-0.6372 2.0426-0.8192 0.97754-0.5519 1.3508-1.7418 0.83369-2.6576-0.51711-0.9158-1.7288-1.2107-2.7063-0.6587z" color="#000000" color-rendering="auto" fill="#3abbdf" image-rendering="auto" solid-color="#000000" style="isolation:auto;mix-blend-mode:normal"/>
   <circle cx="21.176" cy="1030.4" r="4.6538" color="#000000" color-rendering="auto" fill="#fff" image-rendering="auto" solid-color="#000000" style="isolation:auto;mix-blend-mode:normal"/>
   <circle cx="10.339" cy="1030.4" r="4.8316" color="#000000" color-rendering="auto" fill="#fff" image-rendering="auto" solid-color="#000000" style="isolation:auto;mix-blend-mode:normal"/>
  </g>
  <rect x="14.627" y="1036.1" width="3.6674" height="4.1063" ry=".72591" color="#000000" color-rendering="auto" fill-opacity=".32941" image-rendering="auto" solid-color="#000000" style="isolation:auto;mix-blend-mode:normal"/>
  <path d="m20.654 1036.2c0 0.838-0.87123 1.2682-2.1448 1.1659-1.484-0.085-2.6853-0.01-3.8871 0-1.2437-0.033-2.0788-0.3383-2.0788-1.1618 0-1.2118 1.8156-2.1941 4.0554-2.1941 2.2397 0 4.0554 0.9823 4.0554 2.1941z" color="#000000" color-rendering="auto" fill-opacity=".32941" image-rendering="auto" solid-color="#000000" style="isolation:auto;mix-blend-mode:normal"/>
  <g>
   <rect x="14.116" y="1035.2" width="3.6674" height="4.1063" ry=".72591" color="#000000" color-rendering="auto" fill="#fffcfb" image-rendering="auto" solid-color="#000000" style="isolation:auto;mix-blend-mode:normal"/>
   <path d="m19.977 1035.7c0 0.5685-0.43366 0.8554-1.1381 1.0001-0.29193 0.06-0.63037 0.096-1.0037 0.1166-0.56405 0.032-1.2078 0.031-1.8912 0.031-0.67283 0-1.3072 0-1.8649-0.029-0.30627-0.017-0.58943-0.043-0.84316-0.084-0.81383-0.1318-1.325-0.417-1.325-1.0344 0-1.1601 1.8056-2.1006 4.033-2.1006 2.2274 0 4.033 0.9405 4.033 2.1006z" color="#000000" color-rendering="auto" fill="#c38c74" image-rendering="auto" solid-color="#000000" style="isolation:auto;mix-blend-mode:normal"/>
   <ellipse cx="15.944" cy="1033.9" rx="2.0802" ry="1.3437" color="#000000" color-rendering="auto" fill="#23201f" image-rendering="auto" solid-color="#000000" style="isolation:auto;mix-blend-mode:normal"/>
   <circle cx="12.414" cy="1030.4" r="1.9631" color="#000000" color-rendering="auto" fill="#171311" image-rendering="auto" solid-color="#000000" style="isolation:auto;mix-blend-mode:normal"/>
   <circle cx="23.11" cy="1030.4" r="1.9631" color="#000000" color-rendering="auto" fill="#171311" image-rendering="auto" solid-color="#000000" style="isolation:auto;mix-blend-mode:normal"/>
  </g>
 </g>
 <g transform="matrix(.21923 .43672 -.43672 .21923 527.79 -223.01)" shape-rendering="auto">
  <rect x="14.406" y="1035.7" width="3.0867" height="3.5314" ry=".62426" color="#000000" color-rendering="auto" fill-opacity=".3285" image-rendering="auto" solid-color="#000000" style="isolation:auto;mix-blend-mode:normal"/>
  <g>
   <path d="m21.057 1023.9c10.313 6.0905 3.0003 9.8927 4.1761 28.318l0.6304 0.075c-0.6904-7.5565 2.1521-18.047 2.1521-19.908 3e-6 -4.1341-1.851-7.2987-6.9587-8.4848z" color="#000000" color-rendering="auto" fill="#3abbdf" image-rendering="auto" solid-color="#000000" style="isolation:auto;mix-blend-mode:normal"/>
   <circle cx="21.176" cy="1030.4" r="4.6538" color="#000000" color-rendering="auto" fill="#fff" image-rendering="auto" solid-color="#000000" style="isolation:auto;mix-blend-mode:normal"/>
   <circle cx="10.339" cy="1030.4" r="4.8316" color="#000000" color-rendering="auto" fill="#fff" image-rendering="auto" solid-color="#000000" style="isolation:auto;mix-blend-mode:normal"/>
  </g>
  <rect x="14.627" y="1036.1" width="3.6674" height="4.1063" ry=".72591" color="#000000" color-rendering="auto" fill-opacity=".32941" image-rendering="auto" solid-color="#000000" style="isolation:auto;mix-blend-mode:normal"/>
  <path d="m20.654 1036.2c0 0.838-0.87123 1.2682-2.1448 1.1659-1.484-0.085-2.6853-0.01-3.8871 0-1.2437-0.033-2.0788-0.3383-2.0788-1.1618 0-1.2118 1.8156-2.1941 4.0554-2.1941 2.2397 0 4.0554 0.9823 4.0554 2.1941z" color="#000000" color-rendering="auto" fill-opacity=".32941" image-rendering="auto" solid-color="#000000" style="isolation:auto;mix-blend-mode:normal"/>
  <g>
   <rect x="14.116" y="1035.2" width="3.6674" height="4.1063" ry=".72591" color="#000000" color-rendering="auto" fill="#fffcfb" image-rendering="auto" solid-color="#000000" style="isolation:auto;mix-blend-mode:normal"/>
   <path d="m19.977 1035.7c0 0.5685-0.43366 0.8554-1.1381 1.0001-0.29193 0.06-0.63037 0.096-1.0037 0.1166-0.56405 0.032-1.2078 0.031-1.8912 0.031-0.67283 0-1.3072 0-1.8649-0.029-0.30627-0.017-0.58943-0.043-0.84316-0.084-0.81383-0.1318-1.325-0.417-1.325-1.0344 0-1.1601 1.8056-2.1006 4.033-2.1006 2.2274 0 4.033 0.9405 4.033 2.1006z" color="#000000" color-rendering="auto" fill="#c38c74" image-rendering="auto" solid-color="#000000" style="isolation:auto;mix-blend-mode:normal"/>
   <ellipse cx="15.944" cy="1033.9" rx="2.0802" ry="1.3437" color="#000000" color-rendering="auto" fill="#23201f" image-rendering="auto" solid-color="#000000" style="isolation:auto;mix-blend-mode:normal"/>
   <circle cx="12.414" cy="1030.4" r="1.9631" color="#000000" color-rendering="auto" fill="#171311" image-rendering="auto" solid-color="#000000" style="isolation:auto;mix-blend-mode:normal"/>
   <circle cx="23.11" cy="1030.4" r="1.9631" color="#000000" color-rendering="auto" fill="#171311" image-rendering="auto" solid-color="#000000" style="isolation:auto;mix-blend-mode:normal"/>
  </g>
 </g>
 <path d="m26.38 30.477s14.422-13.544 25.152-18.894c10.73-5.3501 20.036-3.8255 20.036-3.8255l5.1696 10.935s-1.6795 7.6294-15.143 14.175c-13.464 6.5453-30.09 8.4494-30.09 8.4494z" fill="#18293c"/>
 <path d="m76.16 17.472c-3.0028 10.073-29.978 18.528-45.108 22.44l0.45249 1.405s16.627-1.9024 30.09-8.4494c13.464-6.5455 15.143-14.175 15.143-14.175z" fill="#0a121a"/>
 <g transform="rotate(.084871 385.44 -357.52)" fill="#18293c" stroke-width=".45072" aria-label="GOCANNON">
  <path d="m2.8783 61.014q0-1.857 0.82933-3.3173 0.84736-1.4784 2.3077-2.2897 1.4784-0.82933 3.2813-0.82933 2.1274 0 3.6959 1.0457 1.5685 1.0277 2.1635 2.9027h-2.9027q-0.4327-0.79328-1.1899-1.2079t-1.7668-0.41467q-1.1178 0-1.9832 0.50481t-1.3522 1.4423q-0.48678 0.93751-0.48678 2.1635 0 1.262 0.48678 2.1995 0.50481 0.93751 1.3882 1.4423t2.0553 0.50481q1.4423 0 2.3618-0.77525 0.93751-0.77525 1.2079-2.1455h-4.327v-1.9111h6.815v2.1995q-0.25241 1.3161-1.0817 2.4339-0.82933 1.1178-2.1455 1.8029-1.2981 0.66707-2.9207 0.66707-1.8209 0-3.2993-0.8113-1.4603-0.82933-2.3077-2.2897-0.82933-1.4603-0.82933-3.3173z"/>
  <path d="m23.179 67.45q-1.7668 0-3.2452-0.82933t-2.3438-2.2897q-0.86539-1.4784-0.86539-3.3354 0-1.839 0.86539-3.2993 0.86539-1.4784 2.3438-2.3077t3.2452-0.82933q1.7849 0 3.2452 0.82933 1.4784 0.82933 2.3257 2.3077 0.86539 1.4603 0.86539 3.2993 0 1.857-0.86539 3.3354-0.84736 1.4603-2.3257 2.2897t-3.2452 0.82933zm0-2.3257q1.1358 0 2.0012-0.50481 0.86539-0.52284 1.3522-1.4423 0.48678-0.93751 0.48678-2.1815t-0.48678-2.1635q-0.48678-0.93751-1.3522-1.4423-0.86539-0.50481-2.0012-0.50481t-2.0192 0.50481q-0.86539 0.50481-1.3522 1.4423-0.48678 0.91948-0.48678 2.1635t0.48678 2.1815q0.48678 0.91948 1.3522 1.4423 0.88342 0.50481 2.0192 0.50481z"/>
  <path d="m30.877 61.014q0-1.857 0.82933-3.3173 0.84736-1.4784 2.2897-2.2897 1.4603-0.82933 3.2632-0.82933 2.1094 0 3.6959 1.0817t2.2176 2.9928h-2.9027q-0.45072-0.86539-1.226-1.2981-0.77525-0.45072-1.8029-0.45072-1.0998 0-1.9652 0.50481-0.84736 0.50481-1.3341 1.4423-0.46875 0.93751-0.46875 2.1635t0.46875 2.1635q0.48678 0.91948 1.3341 1.4423 0.86539 0.50481 1.9652 0.50481 1.0277 0 1.8029-0.45072 0.79328-0.45072 1.226-1.3161h2.9027q-0.63102 1.9291-2.2176 3.0108-1.5685 1.0637-3.6959 1.0637-1.8029 0-3.2632-0.8113-1.4423-0.82933-2.2897-2.2897-0.82933-1.4603-0.82933-3.3173z"/>
  <path d="m53.053 64.926h-5.0121l-0.82933 2.3979h-2.6503l4.5253-12.602h2.9387l4.5253 12.602h-2.6683zm-0.66707-1.9652-1.839-5.3186-1.839 5.3186z"/>
  <path d="m69.009 67.324h-2.5241l-5.7152-8.6359v8.6359h-2.5241v-12.602h2.5241l5.7152 8.6539v-8.6539h2.5241z"/>
  <path d="m82.26 67.324h-2.5241l-5.7152-8.6359v8.6359h-2.5241v-12.602h2.5241l5.7152 8.6539v-8.6539h2.5241z"/>
  <path d="m90.589 67.45q-1.7668 0-3.2452-0.82933t-2.3438-2.2897q-0.86539-1.4784-0.86539-3.3354 0-1.839 0.86539-3.2993 0.86539-1.4784 2.3438-2.3077t3.2452-0.82933q1.7849 0 3.2452 0.82933 1.4784 0.82933 2.3257 2.3077 0.86539 1.4603 0.86539 3.2993 0 1.857-0.86539 3.3354-0.84736 1.4603-2.3257 2.2897-1.4784 0.82933-3.2452 0.82933zm0-2.3257q1.1358 0 2.0012-0.50481 0.86539-0.52284 1.3522-1.4423 0.48678-0.93751 0.48678-2.1815t-0.48678-2.1635q-0.48678-0.93751-1.3522-1.4423t-2.0012-0.50481-2.0192 0.50481q-0.86539 0.50481-1.3522 1.4423-0.48678 0.91948-0.48678 2.1635t0.48678 2.1815q0.48678 0.91948 1.3522 1.4423 0.88342 0.50481 2.0192 0.50481z"/>
  <path d="m109.66 67.324h-2.5241l-5.7152-8.6359v8.6359h-2.5241v-12.602h2.5241l5.7152 8.6539v-8.6539h2.5241z"/>
 </g>
 <rect x="33.768" y="47.253" width="28.854" height="2.2033" fill="#181818" stroke="#3a5778" stroke-width=".74852"/>
 <g transform="rotate(-25.805 -1.5116 .86932)" fill="#fff" stroke-width=".24303" aria-label="HTTP">
  <path d="m31.177 41.089v6.8048h-1.5748v-2.79h-3.0913v2.79h-1.5748v-6.8048h1.5748v2.683h3.0913v-2.683z"/>
  <path d="m34.2 42.372h-2.1775v-1.2832h5.9299v1.2832h-2.1775v5.5216h-1.5748z"/>
  <path d="m40.305 42.372h-2.1775v-1.2832h5.9299v1.2832h-2.1775v5.5216h-1.5748z"/>
  <path d="m47.848 41.089q0.90406 0 1.5651 0.30135 0.67076 0.30135 1.0304 0.85546 0.35968 0.5541 0.35968 1.3123 0 0.74852-0.35968 1.3123-0.35968 0.5541-1.0304 0.85546-0.66104 0.29163-1.5651 0.29163h-1.3707v1.8762h-1.5748v-6.8048zm-0.08749 3.6454q0.70964 0 1.079-0.30135 0.3694-0.31108 0.3694-0.8749 0-0.57354-0.3694-0.8749-0.3694-0.31108-1.079-0.31108h-1.2832v2.3622z"/>
 </g>
 <path d="m26.38 30.477s14.422-13.544 25.152-18.894c10.73-5.3501 20.036-3.8255 20.036-3.8255l5.1696 10.935s-1.6795 7.6294-15.143 14.175c-13.464 6.5453-30.09 8.4494-30.09 8.4494z" fill="none" stroke="#3a5778" stroke-width="1.0727" style="paint-order:markers fill stroke"/>
</svg>
